<?xml version="1.0" standalone="no"?><!DOCTYPE svg PUBLIC "-//W3C//DTD SVG 1.1//EN" "http://www.w3.org/Graphics/SVG/1.1/DTD/svg11.dtd"><svg t="1779171517581" class="icon" viewBox="0 0 1024 1024" version="1.1" xmlns="http://www.w3.org/2000/svg" p-id="7827" xmlns:xlink="http://www.w3.org/1999/xlink" width="256" height="256"><path d="M870.4 0a102.4 102.4 0 0 1 102.4 102.4v588.8h-107.6224a12.8 12.8 0 0 0-12.8 12.8v17.0496c0 7.0656 5.6832 12.8 12.8 12.8H972.8V921.6a102.4 102.4 0 0 1-102.4 102.4h-159.6928a15.5136 15.5136 0 0 1-15.5136-15.5136c0-3.8912-0.4096-5.4784-0.3584-9.3696C695.1936 907.9808 628.0192 819.2 512 819.2c-120.9856 0-179.5072 87.6544-179.2 179.9168l-0.3072 9.3696A15.5136 15.5136 0 0 1 316.928 1024H153.6a102.4 102.4 0 0 1-102.4-102.4v-187.7504h102.2976a12.8 12.8 0 0 0 12.8-12.8v-17.0496a12.8 12.8 0 0 0-12.8-12.8H51.2V102.4a102.4 102.4 0 0 1 102.4-102.4h716.8zM512 870.4a76.8 76.8 0 1 1 0 153.6 76.8 76.8 0 0 1 0-153.6z m-64-179.2h-179.2a12.8 12.8 0 0 0-12.8 12.8v17.0496c0 7.0656 5.7344 12.8 12.8 12.8h179.2a12.8 12.8 0 0 0 12.8-12.8v-17.0496a12.8 12.8 0 0 0-12.8-12.8z m307.2 0h-179.2a12.8 12.8 0 0 0-12.8 12.8v17.0496c0 7.0656 5.7344 12.8 12.8 12.8h179.2a12.8 12.8 0 0 0 12.8-12.8v-17.0496a12.8 12.8 0 0 0-12.8-12.8z m-6.6048-259.8912H275.456a10.24 10.24 0 0 0-10.24 10.24v30.6176c0 5.632 4.608 10.24 10.24 10.24h214.3232v60.2624c0 14.336-7.424 21.8112-21.1456 21.8112-14.336 0-29.696-1.1776-45.7216-2.8672l10.1888 44.8a10.24 10.24 0 0 0 9.984 7.9872h44.3904c39.424 0 59.392-19.5072 59.392-58.5216V482.4064h201.7792a10.24 10.24 0 0 0 10.24-10.24v-30.6176a10.24 10.24 0 0 0-10.24-10.24z m-112.64 59.0848l-38.8096 37.888c39.6288 14.7456 81.7152 42.1376 126.2592 82.1248l41.728-41.9328c-52.224-34.4576-95.232-60.416-129.1264-78.08z m-236.544 1.1776c-36.5568 27.5456-82.2784 51.0976-136.5504 71.7312l35.9936 47.104c54.8352-24.1152 101.12-51.712 138.8544-83.8144L399.4112 491.52z m296.0384-136.6016H332.544a10.24 10.24 0 0 0-10.24 10.24v28.8768c0 5.632 4.608 10.24 10.24 10.24h362.9056a10.24 10.24 0 0 0 10.24-10.24v-28.8768a10.24 10.24 0 0 0-10.24-10.24zM757.76 102.4H266.24a10.24 10.24 0 0 0-10.24 10.24v31.1808c0 5.632 4.608 10.24 10.24 10.24h156.0576v33.28H305.664a10.24 10.24 0 0 0-10.24 10.24v117.248c0 5.6832 4.608 10.24 10.24 10.24h412.672a10.24 10.24 0 0 0 10.24-10.24V197.632a10.24 10.24 0 0 0-10.24-10.24h-116.6336v-33.28H757.76a10.24 10.24 0 0 0 10.24-10.24V112.64a10.24 10.24 0 0 0-10.24-10.24z m-90.5216 133.12v41.3696H597.504v-41.3184h69.7344z m-126.3104 0v41.3696H474.6752v-41.3184h66.2528z m-122.88 0v41.3696H348.416v-41.3184h69.7344z m122.88-81.4592v33.28H474.6752v-33.28h66.2528z" fill="#d4237a" p-id="7828"></path></svg>